<?xml version="1.0" encoding="utf-8"?>
<!-- Generator: Adobe Illustrator 25.2.3, SVG Export Plug-In . SVG Version: 6.00 Build 0)  -->
<svg version="1.1" id="Layer_1" xmlns="http://www.w3.org/2000/svg" xmlns:xlink="http://www.w3.org/1999/xlink" x="0px" y="0px"
	 viewBox="0 0 250.351 45" style="enable-background:new 0 0 250.351 45;" xml:space="preserve">
<style type="text/css">
	.st0{fill:#338FCD;}
</style>
<g>
	<g>
		<path class="st0" d="M12.303,40.351L8.97,44.77H0l19.645-25.92h10.355l8.649,25.92h-8.97l-1.448-4.419
			C28.232,40.351,12.303,40.351,12.303,40.351z M16.406,34.778h10.025l-3.056-9.332L16.406,34.778z"/>
		<path class="st0" d="M41.497,29.766c0.507-2.419,0.767-3.661,0.781-3.727c0.498-2.374,1.56-4.165,3.188-5.375
			c1.627-1.209,3.87-1.814,6.728-1.814c4.463,0,11.893,0,22.292,0l-1.334,6.364c-13.059,0-20.193,0-21.402,0
			c-0.77,0-1.369,0.132-1.798,0.396c-0.429,0.263-0.685,0.593-0.768,0.989l-0.548,2.144l-1.285,6.133l-0.33,2.045
			c-0.101,0.484,0,0.869,0.302,1.154c0.302,0.286,0.85,0.429,1.642,0.429c1.209,0,8.343,0,21.402,0l-1.313,6.266
			c-10.399,0-17.83,0-22.292,0c-2.858,0-4.848-0.604-5.967-1.813c-1.121-1.209-1.435-2.99-0.942-5.343
			c0.018-0.087,0.281-1.34,0.788-3.759L41.497,29.766z"/>
		<path class="st0" d="M75.035,29.766c0.507-2.419,0.767-3.661,0.781-3.727c0.498-2.374,1.56-4.165,3.188-5.375
			c1.627-1.209,3.87-1.814,6.728-1.814c4.463,0,11.894,0,22.292,0l-1.334,6.364c-13.059,0-20.193,0-21.402,0
			c-0.77,0-1.369,0.132-1.798,0.396c-0.429,0.263-0.685,0.593-0.768,0.989l-0.548,2.144l-1.285,6.133l-0.33,2.045
			c-0.101,0.484,0,0.869,0.302,1.154c0.302,0.286,0.85,0.429,1.642,0.429c1.209,0,8.343,0,21.402,0l-1.313,6.266
			c-10.399,0-17.83,0-22.292,0c-2.858,0-4.848-0.604-5.967-1.813c-1.121-1.209-1.435-2.99-0.942-5.343
			c0.018-0.087,0.281-1.34,0.788-3.759L75.035,29.766z"/>
		<path class="st0" d="M109.477,25.446c0.221-1.055,0.525-1.929,0.912-2.621c0.387-0.693,0.972-1.336,1.756-1.929
			c0.691-0.572,1.421-1.011,2.19-1.319c0.768-0.308,1.698-0.528,2.792-0.66c1.094-0.132,2.392-0.214,3.894-0.247
			c1.501-0.033,3.813-0.049,6.935-0.049c3.121,0,5.426,0.016,6.915,0.049c1.488,0.033,2.74,0.115,3.757,0.247
			c1.016,0.132,1.839,0.352,2.467,0.66c0.627,0.308,1.167,0.748,1.619,1.319c0.535,0.593,0.851,1.237,0.947,1.929
			c0.096,0.692,0.035,1.566-0.187,2.621l-0.788,3.759c-0.714,3.408-1.334,6.364-1.859,8.87c-0.221,1.055-0.529,1.946-0.923,2.671
			c-0.394,0.726-0.983,1.386-1.766,1.979c-0.687,0.55-1.419,0.973-2.195,1.27c-0.777,0.297-1.714,0.517-2.81,0.659
			c-1.096,0.143-2.429,0.236-3.999,0.28c-1.571,0.044-3.839,0.066-6.807,0.066c-2.968,0-5.217-0.022-6.746-0.066
			c-1.53-0.044-2.818-0.137-3.865-0.28c-1.048-0.142-1.881-0.363-2.5-0.659c-0.62-0.297-1.169-0.72-1.647-1.27
			c-0.535-0.593-0.847-1.253-0.937-1.979c-0.09-0.725-0.024-1.616,0.197-2.671L109.477,25.446z M114.334,37.054
			c-0.115,0.55-0.03,0.929,0.256,1.138c0.286,0.209,0.891,0.313,1.814,0.313c1.209,0,6.101,0,14.675,0
			c0.857,0,1.518-0.137,1.982-0.412c0.464-0.274,0.741-0.621,0.828-1.039l0.622-2.968l1.576-7.519
			c0.129-0.615,0.046-1.033-0.249-1.253c-0.295-0.219-0.903-0.33-1.827-0.33c-1.209,0-6.134,0-14.774,0
			c-0.857,0-1.497,0.143-1.92,0.429c-0.423,0.286-0.684,0.67-0.786,1.154L114.334,37.054z"/>
		<path class="st0" d="M168.978,29.964c0.712-0.462,1.161-1.132,1.345-2.012c0.161-0.769-0.003-1.401-0.493-1.896
			c-0.49-0.494-1.13-0.742-1.922-0.742h-12.828l-4.078,19.456h-8.079l5.432-25.92h21.501c1.825,0,3.314,0.132,4.468,0.396
			c1.153,0.264,2.052,0.698,2.695,1.303c0.642,0.605,1.037,1.424,1.183,2.457c0.146,1.034,0.054,2.341-0.278,3.924
			c-0.332,1.583-0.754,2.913-1.265,3.99c-0.512,1.077-1.144,1.946-1.898,2.606c-0.754,0.659-1.674,1.143-2.761,1.451
			c-1.087,0.308-2.4,0.461-3.939,0.461l-0.027,0.132l8.657,9.2h-8.97l-12.64-14.114h11.608
			C167.502,30.656,168.266,30.426,168.978,29.964z"/>
		<path class="st0" d="M178.768,44.77h-0.231l5.432-25.92c12.355,0,20.764,0,25.228,0c2.858,0,4.854,0.599,5.988,1.797
			c1.134,1.199,1.459,2.951,0.975,5.26c-0.014,0.066-0.274,1.308-0.781,3.726l-0.906,4.32c-0.512,2.44-0.774,3.694-0.788,3.76
			c-0.484,2.308-1.544,4.062-3.18,5.26c-1.636,1.199-3.884,1.797-6.741,1.797h-17.279L178.768,44.77L178.768,44.77z M187.44,38.637
			h16.719c0.791,0,1.397-0.137,1.817-0.412c0.42-0.275,0.677-0.632,0.769-1.072l0.456-2.176l0.643-3.067l0.691-3.298l0.429-2.045
			c0.092-0.439-0.015-0.797-0.32-1.072c-0.305-0.274-0.854-0.412-1.645-0.412c-1.209,0-6.783,0-16.719,0h-0.099l-2.84,13.553
			L187.44,38.637L187.44,38.637z"/>
	</g>
	<g>
		<path class="st0" d="M15.192,0h6.207c4.688,0,7.789,3.684,6.811,8.417c-0.978,4.733-5.623,8.417-10.289,8.417h-6.207L15.192,0z
			 M16.856,13.128h0.982c2.612,0,5.14-1.429,5.818-4.711c0.623-3.014-1.014-4.711-3.826-4.711h-1.027L16.856,13.128z"/>
		<path class="st0" d="M41.831,16.834h-5.448l-2.792-6.475h-0.045l-1.338,6.475h-4.376L31.311,0h6.542
			c3.326,0,5.522,1.585,4.779,5.18c-0.48,2.322-2.19,4.331-4.666,4.755L41.831,16.834z M34.127,7.546h0.424
			c1.429,0,3.091-0.267,3.47-2.098c0.378-1.831-1.174-2.098-2.602-2.098h-0.424L34.127,7.546z"/>
		<path class="st0" d="M46.718,16.834h-4.376L45.821,0h4.376L46.718,16.834z"/>
		<path class="st0" d="M57.325,10.225L63.524,0h4.755L57.612,16.834h-3.394L50.62,0h4.755L57.325,10.225z"/>
		<path class="st0" d="M72.313,3.706l-0.581,2.813h4.934L75.9,10.225h-4.934l-0.599,2.902h5.202l-0.767,3.707h-9.578L68.703,0h9.578
			l-0.766,3.706H72.313z"/>
	</g>
	<g>
		<path class="st0" d="M212.173,44.77l0.527-2.52h2.736l-0.527,2.52H212.173z"/>
		<path class="st0" d="M218.733,44.734h-2.772l1.965-9.396h4.8l2.701,6.996l0.023,0.119l1.488-7.115h2.773l-1.965,9.396h-4.764
			l-2.739-7.044l-0.019-0.084L218.733,44.734z"/>
		<path class="st0" d="M238.553,42.574l-0.459,2.196h-5.736h-2.904h-0.204l1.973-9.432h0.12h2.988h5.736l-0.457,2.184h-5.903
			l-0.331,1.584h5.447l-0.399,1.908h-5.447l-0.326,1.56H238.553z"/>
		<path class="st0" d="M245.12,44.77h-2.94l1.516-7.248h-3.391l0.457-2.184h9.588l-0.457,2.184h-3.258L245.12,44.77z"/>
	</g>
</g>
</svg>
